<?xml version="1.0" encoding="UTF-8" standalone="no"?>
<svg
   xmlns:dc="http://purl.org/dc/elements/1.1/"
   xmlns:cc="http://creativecommons.org/ns#"
   xmlns:rdf="http://www.w3.org/1999/02/22-rdf-syntax-ns#"
   xmlns:svg="http://www.w3.org/2000/svg"
   xmlns="http://www.w3.org/2000/svg"
   xmlns:sodipodi="http://sodipodi.sourceforge.net/DTD/sodipodi-0.dtd"
   xmlns:inkscape="http://www.inkscape.org/namespaces/inkscape"
   width="150"
   height="150"
   viewBox="0 0 150 150"
   fill="none"
   version="1.1"
   id="svg28"
   sodipodi:docname="icon.svg"
   inkscape:version="1.0 (4035a4fb49, 2020-05-01)">
  <metadata
     id="metadata34">
    <rdf:RDF>
      <cc:Work
         rdf:about="">
        <dc:format>image/svg+xml</dc:format>
        <dc:type
           rdf:resource="http://purl.org/dc/dcmitype/StillImage" />
        <dc:title></dc:title>
      </cc:Work>
    </rdf:RDF>
  </metadata>
  <defs
     id="defs32" />
  <sodipodi:namedview
     inkscape:document-rotation="0"
     pagecolor="#ffffff"
     bordercolor="#666666"
     borderopacity="1"
     objecttolerance="10"
     gridtolerance="10"
     guidetolerance="10"
     inkscape:pageopacity="0"
     inkscape:pageshadow="2"
     inkscape:window-width="1366"
     inkscape:window-height="743"
     id="namedview30"
     showgrid="false"
     showguides="true"
     inkscape:guide-bbox="true"
     inkscape:zoom="2.5309735"
     inkscape:cx="143.76874"
     inkscape:cy="87.90353"
     inkscape:window-x="0"
     inkscape:window-y="0"
     inkscape:window-maximized="1"
     inkscape:current-layer="svg28">
    <sodipodi:guide
       position="-50.018178,1072"
       orientation="0,1"
       id="guide863"
       inkscape:label=""
       inkscape:locked="false"
       inkscape:color="rgb(0,0,255)" />
    <sodipodi:guide
       position="150,1027.451"
       orientation="-1,0"
       id="guide867"
       inkscape:label=""
       inkscape:locked="false"
       inkscape:color="rgb(0,0,255)" />
  </sodipodi:namedview>
  <rect
     style="fill:#f0f0f5;fill-opacity:1;stroke-width:1.23886"
     id="rect871"
     width="150"
     height="150"
     x="0"
     y="0"
     ry="8" />
  <g
     id="g886"
     transform="translate(13.372987,18.627177)">
    <path
       id="path2"
       fill="#29a361"
       d="M 37.5971,4.7393 25.8497,27.1256 c -0.7586,1.4454 -0.2591,3.2525 1.1235,4.0651 l 18.3945,10.8125 c 1.4015,0.8238 3.1834,0.3172 3.9805,-1.132 L 71.8322,0.00149536 H 45.2957 c -3.2121,0 -6.1666,1.81809464 -7.6986,4.73780464 z" />
    <path
       id="path4"
       fill="#248f55"
       d="M 71.8321,0 49.3488,40.8702 c -0.7985,1.4489 -2.5792,1.9568 -3.9803,1.1335 l -4.8011,-2.8211 c 1.1704,0.1949 2.3883,-0.3615 3.0082,-1.49 L 64.3155,0 Z" />
    <path
       id="path6"
       fill="#34cb79"
       d="M 96.4331,21.6758 88.3306,4.99398 C 86.8441,1.93336 83.8152,0.00149536 80.5034,0.00149536 H 57.0767 L 75.0636,31.5599 c -0.059,0.0274 -0.1182,0.0548 -0.1772,0.0822 -1.1314,0.5268 -1.0852,2.2052 0.0732,2.6653 l 15.5318,6.1682 c 0.7198,0.2858 1.5272,-0.0858 1.8035,-0.83 l 5.9875,-16.1241 c 0.4427,-1.1927 -0.7198,-2.3436 -1.8493,-1.8457 z" />
    <path
       id="path8"
       fill="#2fb86e"
       d="m 98.2827,23.5203 -5.9891,16.1238 c -0.2752,0.7464 -1.0838,1.1183 -1.8029,0.831 L 85.7912,38.608 91.3935,23.5203 C 91.7119,22.6646 91.2033,21.8314 90.4734,21.6128 89.7784,21.4044 89.185,20.9336 88.8602,20.265 L 81.4414,4.99348 C 79.9558,1.93386 76.9279,0 73.6147,0 h 6.8893 c 3.3108,0 6.3387,1.93386 7.8266,4.99348 l 8.1021,16.68302 c 1.1309,-0.4976 2.2915,0.6513 1.85,1.8438 z" />
    <path
       id="path10"
       fill="#29a361"
       d="m 80.7813,85.9925 c -0.2181,-0.9261 -1.3736,-1.3229 -2.079,-0.5937 L 66.563,97.9527 c -0.4844,0.5009 -0.4844,1.3127 0,1.8133 l 12.1863,12.602 c 0.7002,0.724 1.844,0.338 2.0741,-0.573 h 17.9207 c 3.2989,0 6.3189,-1.917 7.8119,-4.959 L 116.781,85.9923 H 80.7813 Z" />
    <path
       id="path12"
       fill="#248f55"
       d="m 95.9095,85.9932 5.8105,9.0927 c 1.314,2.0556 1.459,4.6825 0.381,6.8801 l -2.3898,4.87 c -1.4904,3.042 -4.5111,4.96 -7.8093,4.96 h 6.8423 c 3.2978,0 6.3188,-1.918 7.8118,-4.96 L 116.781,85.9934 H 95.9095 Z" />
    <path
       id="path14"
       fill="#29a361"
       d="M 56.3248,109.399 V 87.2132 c 0,-1.6675 -1.3071,-3.0195 -2.9198,-3.0195 H 5.30908 L 17.6865,107.693 c 1.5342,2.913 4.4848,4.726 7.6921,4.726 H 53.405 c 1.6124,0 2.9198,-1.352 2.9198,-3.02 z" />
    <path
       id="path16"
       fill="#248f55"
       d="M 25.7067,84.1965 15.0255,102.644 5.30908,84.1965 Z" />
    <path
       id="path18"
       fill="#248f55"
       d="m 56.324,87.2141 v 22.1869 c 0,1.667 -1.3069,3.019 -2.9188,3.019 h -7.6606 c 1.612,0 2.9189,-1.352 2.9189,-3.019 V 87.2141 c 0,-1.667 -1.3069,-3.0185 -2.9189,-3.0185 h 7.6606 c 1.6119,-3e-4 2.9188,1.3515 2.9188,3.0185 z" />
    <path
       id="path20"
       fill="#34cb79"
       d="M 32.8285,64.5901 30.6687,47.7811 C 30.562,46.9506 29.8244,46.367 29.0216,46.4773 l -16.3165,2.2421 c -1.2287,0.1688 -1.6866,1.7145 -0.845,2.5744 L 1.56256,66.6429 c -1.888052,2.8142 -2.079675,6.4887 -0.49542,9.4966 L 12.2729,97.4147 30.4679,65.9842 c 0.0065,0.005 0.0127,0.0102 0.0193,0.0152 1.0385,0.8151 2.5129,-0.0727 2.3413,-1.4093 z" />
    <path
       id="path22"
       fill="#2fb86e"
       d="m 30.4864,65.9988 c -0.005,-0.0052 -0.0123,-0.0102 -0.0173,-0.0154 L 12.2734,97.4131 8.53125,90.309 23.341,64.7227 23.7517,64.0129 c 0.2246,-0.3878 0.6635,-0.5554 1.0927,-0.4692 0.0022,5e-4 0.0043,7e-4 0.0065,0.0012 0.9131,0.1683 1.8498,-0.6184 1.7094,-1.6981 L 24.6631,47.0745 29.0204,46.477 c 0.8035,-0.1103 1.5426,0.4745 1.6492,1.3027 l 2.1601,16.8113 c 0.1714,1.3359 -1.3043,2.2231 -2.3433,1.4078 z" />
    <path
       id="path24"
       fill="#34cb79"
       d="M 121.704,65.4875 107.618,44.3804 c -0.864,-1.2948 -2.545,-1.6864 -3.862,-0.9002 L 85.3988,54.4348 c -1.4569,0.8693 -1.9039,2.8289 -0.9764,4.2802 L 110.3,99.2041 122.306,74.7311 c 1.453,-2.9623 1.222,-6.5096 -0.602,-9.2436 z" />
    <path
       id="path26"
       fill="#2fb86e"
       d="m 122.306,74.7309 -12.008,24.4718 -4.027,-6.304 8.913,-18.168 c 1.453,-2.9623 1.222,-6.5091 -0.603,-9.2431 l -13.587,-20.3581 2.762,-1.6491 c 1.317,-0.7874 2.999,-0.3951 3.862,0.9002 l 14.086,21.1072 c 1.825,2.734 2.055,6.2811 0.602,9.2431 z" />
  </g>
</svg>
